<svg width="60.000000" height="60.000000" viewBox="0 0 60 60" fill="none" xmlns="http://www.w3.org/2000/svg" xmlns:xlink="http://www.w3.org/1999/xlink">
	<desc>
			Created with Pixso.
	</desc>
	<defs/>
	<path id="Логотип" d="M3.3 0L3.3 2.59L11.21 2.59L11.21 7.65L7.75 7.65C6.19 7.65 4.43 7.69 3.17 8.58C1.46 9.79 0.22 11.89 0.03 13.93C-0.18 16.18 0.55 18.86 2.33 20.32C4.39 22.02 8.05 23.09 10.34 21.68C12.08 20.62 12.76 17.77 11.98 15.93C11.29 14.29 8.99 12.71 7.25 13.25C6.26 13.56 5.59 15.09 5.98 16.02C6.4 17.01 8.6 16.23 9.07 17.2C9.4 17.87 9.06 19 8.37 19.33C6.76 20.09 4.38 18.95 3.31 17.56C2.36 16.32 2.55 14.39 3.08 12.94C3.44 11.91 4.29 10.98 5.28 10.49C6.01 10.12 6.92 10.25 7.75 10.25L15.67 10.25L15.67 17.62L15.67 48.78L10.93 48.78L8.24 48.78L8.24 51.38L8.24 60L10.93 60L51.75 60L51.75 57.4L51.75 51.38L51.75 48.78L49.06 48.78L44.32 48.78L44.32 10.25L52.24 10.25C53.07 10.25 53.98 10.12 54.71 10.49C55.7 10.98 56.55 11.91 56.91 12.94C57.44 14.39 57.63 16.32 56.68 17.56C55.61 18.95 53.23 20.09 51.62 19.33C50.93 19 50.58 17.87 50.91 17.2C51.39 16.23 53.59 17.01 54.01 16.02C54.4 15.09 53.73 13.56 52.74 13.25C51 12.71 48.7 14.29 48.01 15.93C47.23 17.77 47.91 20.62 49.65 21.68C51.94 23.09 55.6 22.02 57.66 20.32C59.44 18.86 60.17 16.18 59.96 13.93C59.77 11.89 58.53 9.79 56.82 8.58C55.56 7.69 53.8 7.65 52.24 7.65L48.78 7.65L48.78 2.59L56.69 2.59L56.69 0L48.78 0L13.9 0L3.3 0ZM13.9 2.59L46.09 2.59L46.09 7.65L44.32 7.65L18.35 7.65L13.9 7.65L13.9 2.59ZM18.35 15.05L41.64 15.05L41.64 48.78L36.9 48.78L36.9 28.78L34.22 28.78L34.22 48.78L25.77 48.78L25.77 28.78L23.09 28.78L23.09 48.78L18.35 48.78L18.35 15.05ZM10.93 51.38L49.06 51.38L49.06 57.4L10.93 57.4L10.93 51.38Z" fill="#000000" fill-opacity="1.000000" fill-rule="nonzero"/>
	<path id="Логотип" d="M3.3 2.59L11.21 2.59L11.21 7.65L7.75 7.65C6.19 7.65 4.43 7.69 3.17 8.58C1.46 9.79 0.22 11.89 0.03 13.93C-0.18 16.18 0.55 18.86 2.33 20.32C4.39 22.02 8.05 23.09 10.34 21.68C12.08 20.62 12.76 17.77 11.98 15.93C11.29 14.29 8.99 12.71 7.25 13.25C6.26 13.56 5.59 15.09 5.98 16.02C6.4 17.01 8.6 16.23 9.07 17.2C9.4 17.87 9.06 19 8.37 19.33C6.76 20.09 4.38 18.95 3.31 17.56C2.36 16.32 2.55 14.39 3.08 12.94C3.44 11.91 4.29 10.98 5.28 10.49C6.01 10.12 6.92 10.25 7.75 10.25L15.67 10.25L15.67 17.62L15.67 48.78L10.93 48.78L8.24 48.78L8.24 51.38L8.24 60L10.93 60L51.75 60L51.75 57.4L51.75 51.38L51.75 48.78L49.06 48.78L44.32 48.78L44.32 10.25L52.24 10.25C53.07 10.25 53.98 10.12 54.71 10.49C55.7 10.98 56.55 11.91 56.91 12.94C57.44 14.39 57.63 16.32 56.68 17.56C55.61 18.95 53.23 20.09 51.62 19.33C50.93 19 50.58 17.87 50.91 17.2C51.39 16.23 53.59 17.01 54.01 16.02C54.4 15.09 53.73 13.56 52.74 13.25C51 12.71 48.7 14.29 48.01 15.93C47.23 17.77 47.91 20.62 49.65 21.68C51.94 23.09 55.6 22.02 57.66 20.32C59.44 18.86 60.17 16.18 59.96 13.93C59.77 11.89 58.53 9.79 56.82 8.58C55.56 7.69 53.8 7.65 52.24 7.65L48.78 7.65L48.78 2.59L56.69 2.59L56.69 0L48.78 0L13.9 0L3.3 0L3.3 2.59ZM46.09 2.59L46.09 7.65L44.32 7.65L18.35 7.65L13.9 7.65L13.9 2.59L46.09 2.59ZM41.64 15.05L41.64 48.78L36.9 48.78L36.9 28.78L34.22 28.78L34.22 48.78L25.77 48.78L25.77 28.78L23.09 28.78L23.09 48.78L18.35 48.78L18.35 15.05L41.64 15.05ZM49.06 51.38L49.06 57.4L10.93 57.4L10.93 51.38L49.06 51.38Z" stroke="#000000" stroke-opacity="0" stroke-width="5.000000"/>
</svg>
