<svg width="31.000000" height="25.000000" viewBox="0 0 31 25" fill="none" xmlns="http://www.w3.org/2000/svg" xmlns:xlink="http://www.w3.org/1999/xlink">
	<desc>
			Created with Pixso.
	</desc>
	<defs/>
	<path id="Иконка телеграма" d="M2.07 10.68C11.57 6.64 23.86 1.71 25.56 1.03C30.01 -0.76 31.38 -0.42 30.7 3.54C30.21 6.38 28.8 15.79 27.67 21.64C27 25.12 25.51 25.53 23.15 24.03C22.02 23.3 16.31 19.65 15.07 18.79C13.93 18.01 12.37 17.07 14.33 15.21C15.03 14.55 19.6 10.33 23.15 7.05C23.62 6.62 23.03 5.91 22.5 6.26C17.7 9.33 11.05 13.6 10.2 14.16C8.92 15 7.7 15.39 5.49 14.77C3.83 14.31 2.2 13.76 1.57 13.55C-0.87 12.74 -0.29 11.69 2.07 10.68Z" fill="#000000" fill-opacity="1.000000" fill-rule="nonzero"/>
</svg>
