<svg width="37.000000" height="23.000000" viewBox="0 0 37 23" fill="none" xmlns="http://www.w3.org/2000/svg" xmlns:xlink="http://www.w3.org/1999/xlink">
	<desc>
			Created with Pixso.
	</desc>
	<defs/>
	<path id="Иконка ВК" d="M36.62 1.57C36.68 1.34 36.72 1.13 36.71 0.93C36.68 0.39 36.31 0 35.41 0L31.41 0C30.39 0 29.93 0.59 29.66 1.2C29.66 1.2 27.16 6.31 24.28 9.68C23.35 10.65 22.87 10.63 22.37 10.63C22.1 10.63 21.41 10.3 21.41 9.41L21.41 1.54C21.41 0.47 21.15 0 20.29 0L13.18 0C12.56 0 12.23 0.47 12.23 0.96C12.23 1.97 13.61 2.21 13.76 5.06L13.76 10.56C13.76 11.9 13.53 12.15 13.03 12.15C11.66 12.15 8.97 7.58 7.19 1.62C6.79 0.43 6.4 0 5.4 0L1.35 0C0.19 0 0 0.56 0 1.17C0 2.27 0.9 8.18 5.91 15C9.56 19.93 14.34 22.78 18.58 22.78C21.15 22.78 21.41 22.13 21.41 21.12L21.41 16.6C21.41 15.39 21.69 15.18 22.51 15.18C23.09 15.18 24.28 15.56 26.58 18.21C29.22 21.29 29.71 22.78 31.22 22.78L35.23 22.78C36.16 22.78 36.68 22.39 36.71 21.64C36.72 21.45 36.68 21.24 36.63 21C36.33 20.12 34.97 17.98 33.27 15.95C32.33 14.81 31.4 13.7 30.98 13.09C30.69 12.68 30.58 12.41 30.59 12.15C30.61 11.87 30.75 11.6 30.98 11.23C30.94 11.23 36.11 4.01 36.62 1.57Z" fill="#000000" fill-opacity="1.000000" fill-rule="nonzero"/>
</svg>
