<svg width="135.000000" height="43.000000" viewBox="0 0 135 43" fill="none" xmlns="http://www.w3.org/2000/svg" xmlns:xlink="http://www.w3.org/1999/xlink">
	<desc>
			Created with Pixso.
	</desc>
	<defs/>
	<path id="rect4529" d="M0 0L0 42.87L10.38 42.87L10.38 24.61L18.86 42.87L29.24 42.87L38.81 23.45L38.81 42.87L49.2 42.87L49.2 0L38.81 0L24.17 29.71L10.38 0L0 0Z" fill="#1A1A1A" fill-opacity="1.000000" fill-rule="nonzero"/>
	<path id="rect4529" d="M0 42.87L10.38 42.87L10.38 24.61L18.86 42.87L29.24 42.87L38.81 23.45L38.81 42.87L49.2 42.87L49.2 0L38.81 0L24.17 29.71L10.38 0L0 0L0 42.87Z" stroke="#000000" stroke-opacity="0" stroke-width="1.798455"/>
	<path id="rect4535" d="M56.67 0L56.67 42.87L67.06 42.87L89.51 15.85L89.51 42.87L99.9 42.87L99.9 0L89.51 0L67.06 27.01L67.06 0L56.67 0Z" fill="#1A1A1A" fill-opacity="1.000000" fill-rule="nonzero"/>
	<path id="rect4535" d="M56.67 42.87L67.06 42.87L89.51 15.85L89.51 42.87L99.9 42.87L99.9 0L89.51 0L67.06 27.01L67.06 0L56.67 0L56.67 42.87Z" stroke="#000000" stroke-opacity="0" stroke-width="1.798455"/>
	<path id="rect4539" d="M107.37 0L107.37 10.31L107.37 16.27L107.37 26.59L107.37 32.55L107.37 42.87L117.76 42.87L134.14 42.87L134.14 32.55L117.76 32.55L117.76 26.59L131.34 26.59L131.34 16.27L117.76 16.27L117.76 10.31L134.14 10.31L134.14 0L107.37 0Z" fill="#1A1A1A" fill-opacity="1.000000" fill-rule="nonzero"/>
	<path id="rect4539" d="M107.37 10.31L107.37 16.27L107.37 26.59L107.37 32.55L107.37 42.87L117.76 42.87L134.14 42.87L134.14 32.55L117.76 32.55L117.76 26.59L131.34 26.59L131.34 16.27L117.76 16.27L117.76 10.31L134.14 10.31L134.14 0L107.37 0L107.37 10.31Z" stroke="#000000" stroke-opacity="0" stroke-width="1.798455"/>
</svg>
