<svg width="30.000000" height="29.000000" viewBox="0 0 30 29" fill="none" xmlns="http://www.w3.org/2000/svg" xmlns:xlink="http://www.w3.org/1999/xlink">
	<desc>
			Created with Pixso.
	</desc>
	<defs/>
	<path id="Иконка Whatsapp" d="M14.9 0C6.68 0 0 6.5 0 14.5C0 16.99 0.66 19.45 1.91 21.61L0.02 28.18C-0.04 28.41 0.02 28.64 0.18 28.8C0.3 28.93 0.47 29 0.64 29C0.69 29 0.75 28.99 0.8 28.98L7.86 27.28C10.01 28.4 12.44 29 14.9 29C23.11 29 29.8 22.49 29.8 14.5C29.8 6.5 23.11 0 14.9 0ZM22.39 19.61C22.07 20.46 20.54 21.25 19.81 21.36C19.15 21.45 18.31 21.49 17.4 21.21C16.84 21.04 16.13 20.81 15.22 20.43C11.38 18.85 8.88 15.13 8.68 14.89C8.49 14.64 7.12 12.9 7.12 11.09C7.12 9.28 8.11 8.39 8.46 8.02C8.81 7.65 9.23 7.56 9.48 7.56C9.74 7.56 9.99 7.56 10.21 7.56C10.45 7.57 10.77 7.48 11.08 8.19C11.39 8.93 12.16 10.75 12.25 10.93C12.35 11.12 12.41 11.33 12.29 11.58C12.16 11.81 12.1 11.98 11.9 12.18C11.71 12.41 11.5 12.67 11.33 12.84C11.14 13.02 10.94 13.22 11.16 13.59C11.39 13.95 12.15 15.16 13.29 16.12C14.75 17.37 15.98 17.77 16.37 17.95C16.75 18.14 16.97 18.11 17.19 17.87C17.42 17.62 18.15 16.79 18.41 16.42C18.66 16.06 18.92 16.12 19.27 16.24C19.62 16.36 21.5 17.25 21.88 17.43C22.26 17.62 22.52 17.7 22.61 17.86C22.71 18.02 22.71 18.75 22.39 19.61Z" fill="#000000" fill-opacity="1.000000" fill-rule="nonzero"/>
</svg>
